# xmcd
#
# Track frame offsets:
#	150
#	789
#	23868
#	43174
#	59921
#	74868
#	94737
#	114176
#	131416
#	146395
#	203134
#
# Disc length: 2730 seconds
#
# Revision: 1
# Processed by: cddbd v1.5.2PL0 Copyright (c) Steve Scherf et al.
# Submitted via: EasyCDDAExtractor 10.5.1.1
#
DISCID=980aa80b
DTITLE=Gregg Allman Band - 18-07-87 Auditorium Shores, Austin, Texas
DYEAR=1900
DGENRE=Blues
TTITLE0=Intro
TTITLE1=Not My Cross To Bear
TTITLE2=Old Time Feeling
TTITLE3=Facces Without Names
TTITLE4=Trouble No More
TTITLE5=Anything Goes
TTITLE6=Hot 'Lanta
TTITLE7=I'm No Angel
TTITLE8=Please Call Home
TTITLE9=Whipping Post
TTITLE10=Outro
EXTD=
EXTT0=
EXTT1=
EXTT2=
EXTT3=
EXTT4=
EXTT5=
EXTT6=
EXTT7=
EXTT8=
EXTT9=
EXTT10=
PLAYORDER=
